<?xml version="1.0" encoding="UTF-8" standalone="no"?>
<!DOCTYPE svg PUBLIC "-//W3C//DTD SVG 1.1//EN" "http://www.w3.org/Graphics/SVG/1.1/DTD/svg11.dtd">
<svg width="100%" height="100%" viewBox="0 0 1024 1024" version="1.1" xmlns="http://www.w3.org/2000/svg" xmlns:xlink="http://www.w3.org/1999/xlink" xml:space="preserve" xmlns:serif="http://www.serif.com/" style="fill-rule:evenodd;clip-rule:evenodd;stroke-linejoin:round;stroke-miterlimit:2;">
    <g transform="matrix(1.590885,0,0,1.36953,-361.137355,-280.32395)">
        <path d="M399.424,387.371L399.424,330.255C399.424,326.388 400.746,322.679 403.1,319.944C405.455,317.21 408.647,315.673 411.977,315.673C431.276,315.673 468.016,315.673 487.269,315.673C494.172,315.673 499.78,322.147 499.822,330.166C499.934,351.34 500.129,388.239 500.129,388.239C500.264,413.804 518.143,434.446 540.152,434.446L560.922,434.446C582.68,434.446 600.318,413.957 600.318,388.682C600.318,388.682 600.382,352.207 600.419,331.149C600.433,323.107 606.049,316.597 612.972,316.597C632.265,316.597 669.032,316.597 688.292,316.597C695.194,316.597 700.801,323.069 700.845,331.086C700.957,351.623 701.149,386.733 701.149,386.733C701.285,412.298 719.164,432.939 741.172,432.939C741.172,432.939 765.106,432.939 782.752,432.939C792.948,432.939 801.213,442.541 801.213,454.385C801.213,526.837 801.213,758.02 801.213,758.02C801.213,771.299 791.946,782.064 780.515,782.064L721.464,782.064C710.033,782.064 700.766,771.299 700.766,758.02L701.624,481.12C701.624,455.443 683.705,434.628 661.6,434.628L641.038,434.452C630.315,434.255 619.972,439.065 612.329,447.804C604.685,456.543 600.381,468.48 600.381,480.938L600.318,758.02C600.318,764.396 598.138,770.512 594.256,775.021C590.374,779.53 585.109,782.064 579.62,782.064L520.821,782.064C515.331,782.064 510.066,779.53 506.185,775.021C502.303,770.512 500.122,764.396 500.122,758.02L500.666,480.938C500.666,455.261 482.747,434.446 460.643,434.446L440.08,434.27C429.357,434.073 419.014,438.883 411.371,447.622C403.728,456.362 399.424,468.298 399.424,480.756L399.424,758.943C399.424,772.222 390.157,782.987 378.725,782.987L319.675,782.987C308.243,782.987 298.976,772.222 298.976,758.943L298.976,454.917C298.976,449.333 300.886,443.978 304.285,440.029C307.684,436.081 312.294,433.863 317.101,433.863C334.9,433.863 359.4,433.863 359.4,433.863C370.015,433.863 380.195,428.964 387.701,420.245C395.207,411.526 399.424,399.701 399.424,387.371Z" style="fill:rgb(242,113,217);"/>
    </g>
</svg>
